<svg width="420" height="600" viewBox="0 0 420 600" fill="none" xmlns="http://www.w3.org/2000/svg">
<path d="M26.0819 530.298C62.3283 580.396 118.691 603.323 175.458 599.612C207.81 597.499 223.26 593.109 242.385 585.374C249.862 582.343 255.006 579.9 259.047 577.879C264.283 575.27 270.07 571.229 270.07 571.229C270.07 571.229 267.443 571.229 263.199 570.824C259.176 570.439 256.53 570.218 256.53 570.218C256.53 570.218 262.501 566.562 264.853 564.817C290.719 545.601 306.592 525.154 325.606 513.837C365.049 490.395 411.345 504.357 411.345 504.357C411.345 504.357 382.98 453.983 330.658 437.229C233.475 406.108 141.857 501.253 132.598 407.743H4.5508C-5.95753 452.165 1.94209 496.954 26.0819 530.316V530.298Z" fill="url(#paint0_linear_37_2440)"/>
<path d="M131.496 568.344C145.789 573.139 159.806 575.987 183.67 575.73C202.041 575.546 219.439 569.796 219.439 569.796C219.439 569.796 209.426 567.665 202.758 565.552C196.089 563.439 187.73 560.518 187.73 560.518C184.368 562.043 209.114 558.92 231.251 553.721C246.114 550.23 262.74 542.257 262.74 542.257C262.74 542.257 238.784 543.948 218.208 542.331C186.83 539.869 148.618 533.347 133.37 521.718C118.379 510.273 101.22 494.768 85.5126 509.208C69.8052 523.666 86.8904 552.729 131.477 568.326L131.496 568.344Z" fill="url(#paint1_linear_37_2440)"/>
<path d="M336.701 115.439C334.019 109.064 323.952 111.397 314.748 102.873C310.522 98.96 306.242 87.1289 302.439 75.8123C299.72 67.7289 297.24 59.9212 295.201 55.457C292.996 50.6437 292.666 49.3393 287.209 36.1121C280.614 20.1291 271.814 0.655602 264.888 0.0493517C256.676 -0.685497 249.604 6.77322 242.457 23.2889C234.135 42.5052 233.308 51.8011 227.889 51.6908C223.388 51.599 216.26 52.242 215.966 51.9297C215.892 51.8562 215.819 51.7643 215.745 51.6725C215.635 51.5439 215.525 51.4153 215.415 51.3051C210.638 45.8488 206.376 38.7575 199.303 27.8818C188.629 11.4763 179.04 3.76034 172.242 6.18535C164.912 8.79406 158.648 25.071 156.296 38.7943C153.228 56.596 152.842 64.6242 150.821 75.6653C150.325 78.3107 149.756 80.6072 148.911 82.8117C147.79 85.8062 146.192 88.617 143.657 91.8503C134.269 103.81 111.672 107.613 111.617 114.557C111.581 119.756 121.317 119.076 119.407 121.281C150.381 118.856 176.541 140.608 203.253 157.123C205.237 158.354 207.423 158.997 209.775 159.254C210.62 158.924 211.74 158.832 213.21 159.071C213.871 159.181 214.514 159.218 215.176 159.218C216.866 159.218 218.556 158.96 220.246 158.428C232.426 154.588 244.662 138.421 261.122 138.403C275.176 138.385 283.058 150.601 285.244 157.876C295.826 152.971 312.323 123.21 334.809 123.577C333.799 123.173 333.027 122.714 332.715 122.071C331.925 120.399 338.777 120.454 336.683 115.457L336.701 115.439Z" fill="url(#paint2_linear_37_2440)"/>
<path d="M252.085 73.5893C269.427 78.7333 282.801 89.5723 282.801 89.5723L302.679 97.1596L302.458 75.8122C299.739 67.7289 297.259 59.9212 295.22 55.4569C293.016 50.6437 292.685 49.3393 287.229 36.1121C280.633 20.1291 271.834 0.655602 264.908 0.0493517C256.696 -0.685497 249.623 6.77322 242.476 23.2889C234.154 42.5052 233.328 51.8011 227.908 51.6908C223.407 51.599 216.279 52.242 215.985 51.9297C215.912 51.8562 215.838 51.7643 215.765 51.6725L215.985 52.0583C215.985 52.0583 226.255 65.9285 252.085 73.5893Z" fill="url(#paint3_linear_37_2440)"/>
<path d="M215.452 51.3052C210.675 45.8489 206.413 38.7576 199.34 27.8819C188.667 11.4764 179.077 3.76048 172.28 6.18548C164.95 8.79419 158.685 25.0711 156.333 38.7944C153.265 56.5961 152.88 64.6243 150.859 75.6654C150.363 78.3109 149.793 80.6073 148.948 82.8118C157.858 76.8963 171.453 68.7578 187.05 62.4749C198.146 57.9923 209.224 53.7118 215.47 51.3052H215.452Z" fill="url(#paint4_linear_37_2440)"/>
<path d="M236.156 213.854C236.156 213.854 225.115 215.819 213.78 226.566H240.896C239.041 218.446 236.138 213.854 236.138 213.854H236.156Z" fill="#FFB029"/>
<path d="M241.135 187.472C276.536 193.957 289.286 171.489 285.281 157.95C285.281 157.913 285.263 157.876 285.244 157.858C283.058 150.583 275.177 138.366 261.123 138.384C244.681 138.403 232.445 154.569 220.247 158.409C218.557 158.942 216.867 159.217 215.176 159.199C214.515 159.199 213.872 159.162 213.211 159.052C211.741 158.813 210.602 158.905 209.775 159.236C202.574 162.028 217.583 183.155 241.135 187.472Z" fill="#FFC635"/>
<path d="M268.398 165.795C273.909 164.564 277.418 166.236 278.777 168.22C280.449 170.682 279.347 176.836 272.586 178.361C266.156 179.812 261.288 175.366 261.472 172.207C261.6 169.947 263.548 166.879 268.416 165.795H268.398Z" fill="#00073A"/>
<path d="M231.288 127.528C231.545 135.225 227.081 139.359 223.572 139.671C217.252 140.241 214.093 137.797 212.2 127.032C210.124 115.256 213.982 111.196 220.192 110.571C226.567 109.928 230.939 117.001 231.288 127.528Z" fill="url(#paint5_linear_37_2440)"/>
<path d="M227.089 133.699C228.626 133.176 229.427 131.444 228.877 129.83C228.328 128.217 226.637 127.333 225.1 127.856C223.563 128.379 222.763 130.111 223.312 131.725C223.861 133.339 225.552 134.223 227.089 133.699Z" fill="white"/>
<path d="M288.607 120.675C290.003 130.853 286.347 133.682 282.03 133.939C277.014 134.251 272.146 132.727 270.915 125.323C268.858 112.831 269.666 104.913 278.006 105.115C283.463 105.243 287.339 111.508 288.588 120.657L288.607 120.675Z" fill="url(#paint6_linear_37_2440)"/>
<path d="M283.871 131.504C285.446 130.968 286.267 129.194 285.705 127.542C285.143 125.89 283.41 124.985 281.835 125.522C280.259 126.058 279.438 127.832 280.001 129.484C280.563 131.136 282.296 132.04 283.871 131.504Z" fill="white"/>
<path d="M344.344 130.779C344.363 125.709 338.227 124.919 334.828 123.541C312.342 123.192 295.826 152.953 285.262 157.84C285.262 157.877 285.281 157.914 285.299 157.932C289.304 171.471 276.555 193.939 241.153 187.454C217.601 183.137 202.592 162.01 209.794 159.218C207.442 158.961 205.256 158.318 203.272 157.087C176.56 140.571 150.399 118.801 119.426 121.245C119.297 121.392 119.113 121.575 118.856 121.759C116.78 123.265 107.043 125.764 107.429 131.624C107.76 136.566 121.061 133.296 122.071 138.146C122.714 141.232 116.321 141.416 118.011 145.917C120.381 152.182 129.879 148.526 136.309 152.439C146.211 158.483 148.507 171.122 136.768 194.601C121.704 224.73 118.93 226.548 118.93 226.548H213.78C225.115 215.801 236.156 213.835 236.156 213.835C236.156 213.835 239.059 218.428 240.914 226.548H271.062C271.062 226.548 290.958 171.582 305.783 158.465C324.43 141.967 340.395 152.935 341.038 144.539C341.295 141.196 334.203 139.303 334.387 135.96C334.534 133.517 344.344 136.107 344.363 130.742L344.344 130.779Z" fill="url(#paint7_linear_37_2440)"/>
<defs>
<linearGradient id="paint0_linear_37_2440" x1="373.298" y1="585.926" x2="2.14416" y2="412.85" gradientUnits="userSpaceOnUse">
<stop stop-color="#FFEB49"/>
<stop offset="0.32" stop-color="#FF9B1D"/>
<stop offset="0.56" stop-color="#FF6600"/>
<stop offset="0.74" stop-color="#FD4B30"/>
<stop offset="1" stop-color="#FB2872"/>
</linearGradient>
<linearGradient id="paint1_linear_37_2440" x1="263.616" y1="550.078" x2="117.367" y2="538.427" gradientUnits="userSpaceOnUse">
<stop stop-color="#FFEB49"/>
<stop offset="0.09" stop-color="#FFE847" stop-opacity="0.96"/>
<stop offset="0.24" stop-color="#FFE143" stop-opacity="0.84"/>
<stop offset="0.44" stop-color="#FFD63D" stop-opacity="0.66"/>
<stop offset="0.67" stop-color="#FFC735" stop-opacity="0.4"/>
<stop offset="0.94" stop-color="#FFB42B" stop-opacity="0.07"/>
<stop offset="1" stop-color="#FFB029" stop-opacity="0"/>
</linearGradient>
<linearGradient id="paint2_linear_37_2440" x1="218.979" y1="218.998" x2="232.702" y2="-43.0679" gradientUnits="userSpaceOnUse">
<stop stop-color="#FF6600"/>
<stop offset="0.13" stop-color="#FF8612"/>
<stop offset="0.28" stop-color="#FFA422"/>
<stop offset="0.36" stop-color="#FFB029"/>
<stop offset="0.45" stop-color="#FFA120"/>
<stop offset="0.64" stop-color="#FF7B0B"/>
<stop offset="0.73" stop-color="#FF6600"/>
<stop offset="0.85" stop-color="#FE6401"/>
<stop offset="0.89" stop-color="#FE6108"/>
<stop offset="0.92" stop-color="#FE5A14"/>
<stop offset="0.95" stop-color="#FD5125"/>
<stop offset="0.97" stop-color="#FC453B"/>
<stop offset="0.98" stop-color="#FB3755"/>
<stop offset="1" stop-color="#FB2872"/>
</linearGradient>
<linearGradient id="paint3_linear_37_2440" x1="260.113" y1="63.228" x2="267.388" y2="-27.7096" gradientUnits="userSpaceOnUse">
<stop offset="0.09" stop-color="#FB2872" stop-opacity="0"/>
<stop offset="0.25" stop-color="#FB2872" stop-opacity="0.13"/>
<stop offset="0.48" stop-color="#FB2872" stop-opacity="0.29"/>
<stop offset="0.69" stop-color="#FB2872" stop-opacity="0.4"/>
<stop offset="0.87" stop-color="#FB2872" stop-opacity="0.48"/>
<stop offset="1" stop-color="#FB2872" stop-opacity="0.5"/>
</linearGradient>
<linearGradient id="paint4_linear_37_2440" x1="180.657" y1="63.7976" x2="152.806" y2="3.99931" gradientUnits="userSpaceOnUse">
<stop offset="0.09" stop-color="#FB2872" stop-opacity="0"/>
<stop offset="0.25" stop-color="#FB2872" stop-opacity="0.13"/>
<stop offset="0.48" stop-color="#FB2872" stop-opacity="0.29"/>
<stop offset="0.69" stop-color="#FB2872" stop-opacity="0.4"/>
<stop offset="0.87" stop-color="#FB2872" stop-opacity="0.48"/>
<stop offset="1" stop-color="#FB2872" stop-opacity="0.5"/>
</linearGradient>
<linearGradient id="paint5_linear_37_2440" x1="225.354" y1="101.808" x2="219.016" y2="139.083" gradientUnits="userSpaceOnUse">
<stop offset="0.16" stop-color="#A030B9"/>
<stop offset="0.88" stop-color="#00073A"/>
</linearGradient>
<linearGradient id="paint6_linear_37_2440" x1="282.287" y1="98.3356" x2="278.098" y2="130.246" gradientUnits="userSpaceOnUse">
<stop offset="0.16" stop-color="#A030B9"/>
<stop offset="0.88" stop-color="#00073A"/>
</linearGradient>
<linearGradient id="paint7_linear_37_2440" x1="227.669" y1="103.994" x2="210.437" y2="365.416" gradientUnits="userSpaceOnUse">
<stop stop-color="#FFEA48"/>
<stop offset="0.11" stop-color="#FFCA37"/>
<stop offset="0.19" stop-color="#FFB72C"/>
<stop offset="0.25" stop-color="#FFB029"/>
<stop offset="0.37" stop-color="#FF9117"/>
<stop offset="0.48" stop-color="#FF790A"/>
<stop offset="0.58" stop-color="#FF6A02"/>
<stop offset="0.67" stop-color="#FF6600"/>
</linearGradient>
</defs>
</svg>
